# Blender 4.2.14 LTS
# www.blender.org
mtllib fb_conetop.mtl
o FB_ConeTop
v 0.000000 -0.095331 -1.000000
v -0.382683 -0.095330 -0.923880
v -0.707107 -0.095330 -0.707107
v -0.923880 -0.095331 -0.382683
v -1.000000 -0.095331 0.000000
v -0.923880 -0.095331 0.382683
v -0.707107 -0.095330 0.707107
v -0.382683 -0.095330 0.923880
v 0.000000 -0.095331 1.000000
v 0.382683 -0.095331 0.923880
v 0.707107 -0.095330 0.707107
v 0.923880 -0.095331 0.382683
v 1.000000 -0.095331 0.000000
v 0.923880 -0.095331 -0.382683
v 0.707107 -0.095330 -0.707107
v 0.382683 -0.095331 -0.923880
v 0.000000 0.384080 -0.814160
v -0.311566 0.384080 -0.752186
v -0.575698 0.384080 -0.575698
v -0.752186 0.384080 -0.311566
v -0.814160 0.384080 0.000000
v -0.752186 0.384080 0.311566
v -0.575698 0.384080 0.575698
v -0.311566 0.384080 0.752186
v 0.000000 0.384080 0.814160
v 0.311566 0.384080 0.752186
v 0.575698 0.384080 0.575698
v 0.752186 0.384080 0.311566
v 0.814160 0.384080 0.000000
v 0.752186 0.384080 -0.311566
v 0.575698 0.384080 -0.575698
v 0.311566 0.384080 -0.752186
v 0.000000 0.719402 -0.653485
v -0.250078 0.719403 -0.603742
v -0.462084 0.719403 -0.462084
v -0.603742 0.719402 -0.250078
v -0.653485 0.719402 0.000000
v -0.603742 0.719402 0.250078
v -0.462084 0.719403 0.462084
v -0.250078 0.719403 0.603742
v 0.000000 0.719402 0.653485
v 0.250078 0.719402 0.603742
v 0.462084 0.719403 0.462084
v 0.603742 0.719402 0.250078
v 0.653485 0.719402 0.000000
v 0.603742 0.719402 -0.250078
v 0.462084 0.719403 -0.462084
v 0.250078 0.719402 -0.603742
v 0.000000 0.957883 -0.509247
v -0.194881 0.957883 -0.470483
v -0.360092 0.957883 -0.360092
v -0.470483 0.957883 -0.194881
v -0.509247 0.957883 0.000000
v -0.470483 0.957883 0.194881
v -0.360092 0.957883 0.360092
v -0.194881 0.957883 0.470483
v 0.000000 0.957883 0.509247
v 0.194881 0.957883 0.470483
v 0.360092 0.957883 0.360092
v 0.470483 0.957883 0.194881
v 0.509247 0.957883 0.000000
v 0.470483 0.957883 -0.194881
v 0.360092 0.957883 -0.360092
v 0.194881 0.957883 -0.470483
v -0.000000 1.127910 -0.373848
v -0.143066 1.127910 -0.345391
v -0.264351 1.127910 -0.264351
v -0.345391 1.127910 -0.143066
v -0.373848 1.127910 0.000000
v -0.345391 1.127910 0.143066
v -0.264351 1.127910 0.264351
v -0.143066 1.127910 0.345391
v -0.000000 1.127910 0.373848
v 0.143065 1.127910 0.345391
v 0.264351 1.127910 0.264351
v 0.345391 1.127910 0.143066
v 0.373848 1.127910 0.000000
v 0.345391 1.127910 -0.143066
v 0.264351 1.127910 -0.264351
v 0.143065 1.127910 -0.345391
v -0.000000 1.242346 -0.243487
v -0.093178 1.242346 -0.224952
v -0.172171 1.242346 -0.172171
v -0.224952 1.242346 -0.093178
v -0.243487 1.242346 0.000000
v -0.224952 1.242346 0.093178
v -0.172171 1.242346 0.172171
v -0.093178 1.242346 0.224952
v -0.000000 1.242346 0.243487
v 0.093178 1.242346 0.224952
v 0.172171 1.242346 0.172171
v 0.224952 1.242346 0.093178
v 0.243487 1.242346 0.000000
v 0.224952 1.242346 -0.093178
v 0.172171 1.242346 -0.172171
v 0.093178 1.242346 -0.224952
v -0.000000 1.313836 -0.094925
v -0.036326 1.313836 -0.087699
v -0.067122 1.313836 -0.067122
v -0.087699 1.313836 -0.036326
v -0.094925 1.313836 0.000000
v -0.087699 1.313836 0.036326
v -0.067122 1.313836 0.067122
v -0.036326 1.313836 0.087699
v -0.000000 1.313836 0.094925
v 0.036326 1.313836 0.087699
v 0.067122 1.313836 0.067122
v 0.087699 1.313836 0.036326
v 0.094925 1.313836 0.000000
v 0.087699 1.313836 -0.036326
v 0.067122 1.313836 -0.067122
v 0.036326 1.313836 -0.087699
v -0.000000 1.326649 0.000000
vn -0.7772 0.3554 0.5193
vn 0.7772 0.3554 -0.5193
vn -0.5193 0.3554 0.7772
vn 0.5193 0.3554 -0.7772
vn -0.1824 0.3554 0.9168
vn -0.1824 0.3554 -0.9168
vn 0.1824 0.3554 -0.9168
vn 0.1824 0.3554 0.9168
vn -0.5193 0.3554 -0.7772
vn 0.5193 0.3554 0.7772
vn -0.7772 0.3554 -0.5193
vn 0.7772 0.3554 0.5193
vn -0.9168 0.3554 -0.1824
vn 0.9168 0.3554 0.1824
vn -0.9168 0.3554 0.1824
vn 0.9168 0.3554 -0.1824
vn -0.8876 0.4253 0.1766
vn 0.8876 0.4253 -0.1766
vn -0.7525 0.4253 0.5028
vn 0.7525 0.4253 -0.5028
vn -0.5028 0.4253 0.7525
vn 0.5028 0.4253 -0.7525
vn -0.1766 0.4253 0.8876
vn -0.1766 0.4253 -0.8876
vn 0.1766 0.4253 -0.8876
vn 0.1766 0.4253 0.8876
vn -0.5028 0.4253 -0.7525
vn 0.5028 0.4253 0.7525
vn -0.7525 0.4253 -0.5028
vn 0.7525 0.4253 0.5028
vn -0.8876 0.4253 -0.1766
vn 0.8876 0.4253 0.1766
vn 0.4778 0.5102 0.7151
vn -0.7151 0.5102 -0.4778
vn 0.7151 0.5102 0.4778
vn -0.8435 0.5102 -0.1678
vn 0.8435 0.5102 0.1678
vn -0.8435 0.5102 0.1678
vn 0.8435 0.5102 -0.1678
vn -0.7151 0.5102 0.4778
vn 0.7151 0.5102 -0.4778
vn -0.4778 0.5102 0.7151
vn 0.4778 0.5102 -0.7151
vn -0.1678 0.5102 0.8435
vn -0.1678 0.5102 -0.8435
vn 0.1678 0.5102 -0.8435
vn 0.1678 0.5102 0.8435
vn -0.4778 0.5102 -0.7151
vn 0.4378 0.6155 -0.6553
vn -0.1538 0.6155 0.7730
vn -0.1538 0.6155 -0.7730
vn 0.1538 0.6155 -0.7730
vn 0.1538 0.6155 0.7730
vn -0.4378 0.6155 -0.6553
vn 0.4378 0.6155 0.6553
vn -0.6553 0.6155 -0.4378
vn 0.6553 0.6155 0.4378
vn -0.7730 0.6155 -0.1538
vn 0.7730 0.6155 0.1538
vn -0.7730 0.6155 0.1538
vn 0.7730 0.6155 -0.1538
vn -0.6553 0.6155 0.4378
vn 0.6553 0.6155 -0.4378
vn -0.4378 0.6155 0.6553
vn -0.6541 0.7451 0.1301
vn 0.6541 0.7451 -0.1301
vn -0.5545 0.7451 0.3705
vn 0.5545 0.7451 -0.3705
vn -0.3705 0.7451 0.5545
vn 0.3705 0.7451 -0.5545
vn -0.1301 0.7451 0.6541
vn -0.1301 0.7451 -0.6541
vn 0.1301 0.7451 -0.6541
vn 0.1301 0.7451 0.6541
vn -0.3705 0.7451 -0.5545
vn 0.3705 0.7451 0.5545
vn -0.5545 0.7451 -0.3705
vn 0.5545 0.7451 0.3705
vn -0.6541 0.7451 -0.1301
vn 0.6541 0.7451 0.1301
vn 0.2447 0.8978 0.3662
vn -0.3662 0.8978 -0.2447
vn 0.3662 0.8978 0.2447
vn -0.4320 0.8978 -0.0859
vn 0.4320 0.8978 0.0859
vn -0.4320 0.8978 0.0859
vn 0.4320 0.8978 -0.0859
vn -0.3662 0.8978 0.2447
vn 0.3662 0.8978 -0.2447
vn -0.2447 0.8978 0.3662
vn 0.2447 0.8978 -0.3662
vn -0.0859 0.8978 0.4320
vn -0.0859 0.8978 -0.4320
vn 0.0859 0.8978 -0.4320
vn 0.0859 0.8978 0.4320
vn -0.2447 0.8978 -0.3662
vn 0.1337 0.9907 0.0266
vn -0.1337 0.9907 0.0266
vn 0.1337 0.9907 -0.0266
vn -0.1134 0.9907 0.0757
vn 0.1134 0.9907 -0.0757
vn -0.0757 0.9907 0.1134
vn 0.0757 0.9907 -0.1134
vn -0.0266 0.9907 0.1337
vn -0.0266 0.9907 -0.1337
vn 0.0266 0.9907 -0.1337
vn 0.0266 0.9907 0.1337
vn -0.0757 0.9907 -0.1134
vn 0.0757 0.9907 0.1134
vn -0.1134 0.9907 -0.0757
vn 0.1134 0.9907 0.0757
vn -0.1337 0.9907 -0.0266
vt 0.207418 0.921875
vt 0.320900 0.757030
vt 0.234208 0.670341
vt 0.072993 0.774299
vt 0.793274 0.081755
vt 0.678926 0.245451
vt 0.765090 0.332587
vt 0.926681 0.229577
vt 0.394057 0.999900
vt 0.432279 0.806894
vt 0.607940 0.002674
vt 0.567681 0.194710
vt 0.591747 0.999900
vt 0.554162 0.809770
vt 0.222123 0.067548
vt 0.331617 0.237168
vt 0.445023 0.190602
vt 0.411471 0.000100
vt 0.771446 0.927499
vt 0.668050 0.766361
vt 0.076698 0.211093
vt 0.242338 0.321175
vt 0.918942 0.794080
vt 0.754676 0.680319
vt 0.000100 0.396555
vt 0.192932 0.433625
vt 0.997838 0.607990
vt 0.804951 0.569047
vt 0.000152 0.594021
vt 0.190393 0.555899
vt 0.998769 0.410069
vt 0.808264 0.447094
vt 0.327694 0.609729
vt 0.299991 0.534997
vt 0.671367 0.392723
vt 0.698700 0.467422
vt 0.384160 0.665459
vt 0.615179 0.336785
vt 0.455180 0.697883
vt 0.544001 0.303861
vt 0.533640 0.700494
vt 0.392285 0.331144
vt 0.464654 0.300762
vt 0.607588 0.672821
vt 0.334837 0.384055
vt 0.663351 0.617121
vt 0.302342 0.456187
vt 0.695979 0.545818
vt 0.606642 0.577520
vt 0.569818 0.614074
vt 0.370395 0.471090
vt 0.392154 0.424336
vt 0.628305 0.530770
vt 0.368300 0.523144
vt 0.630522 0.479049
vt 0.387745 0.571169
vt 0.611232 0.431103
vt 0.422961 0.608755
vt 0.576210 0.393572
vt 0.469765 0.630119
vt 0.529305 0.371992
vt 0.521141 0.632021
vt 0.428849 0.388318
vt 0.477408 0.370073
vt 0.518463 0.418551
vt 0.548813 0.431762
vt 0.513410 0.585492
vt 0.480145 0.584000
vt 0.454176 0.428529
vt 0.485582 0.417033
vt 0.544415 0.573272
vt 0.430178 0.451778
vt 0.568064 0.550175
vt 0.416991 0.482006
vt 0.582063 0.520290
vt 0.415410 0.515088
vt 0.583552 0.487089
vt 0.427790 0.545775
vt 0.571189 0.456289
vt 0.450107 0.570046
vt 0.456966 0.527444
vt 0.449755 0.509274
vt 0.541927 0.474704
vt 0.549158 0.492915
vt 0.470140 0.541831
vt 0.528719 0.460300
vt 0.487917 0.550132
vt 0.510897 0.452068
vt 0.507632 0.551019
vt 0.472888 0.458393
vt 0.491228 0.451199
vt 0.525973 0.543784
vt 0.458400 0.471707
vt 0.540007 0.530196
vt 0.450628 0.489711
vt 0.548279 0.512530
vt 0.514444 0.511901
vt 0.509202 0.516875
vt 0.481363 0.496833
vt 0.484310 0.490208
vt 0.517475 0.505351
vt 0.481076 0.504069
vt 0.517771 0.498108
vt 0.483665 0.510822
vt 0.515182 0.491347
vt 0.488559 0.516134
vt 0.510286 0.486030
vt 0.495138 0.519183
vt 0.503703 0.482980
vt 0.502411 0.519480
vt 0.489645 0.485284
vt 0.496433 0.482682
vt 0.499417 0.501081
s 0
f 7/1/1 23/2/1 22/3/1 6/4/1
f 15/5/2 31/6/2 30/7/2 14/8/2
f 8/9/3 24/10/3 23/2/3 7/1/3
f 16/11/4 32/12/4 31/6/4 15/5/4
f 9/13/5 25/14/5 24/10/5 8/9/5
f 2/15/6 18/16/6 17/17/6 1/18/6
f 1/18/7 17/17/7 32/12/7 16/11/7
f 10/19/8 26/20/8 25/14/8 9/13/8
f 3/21/9 19/22/9 18/16/9 2/15/9
f 11/23/10 27/24/10 26/20/10 10/19/10
f 4/25/11 20/26/11 19/22/11 3/21/11
f 12/27/12 28/28/12 27/24/12 11/23/12
f 5/29/13 21/30/13 20/26/13 4/25/13
f 13/31/14 29/32/14 28/28/14 12/27/14
f 6/4/15 22/3/15 21/30/15 5/29/15
f 14/8/16 30/7/16 29/32/16 13/31/16
f 22/3/17 38/33/17 37/34/17 21/30/17
f 30/7/18 46/35/18 45/36/18 29/32/18
f 23/2/19 39/37/19 38/33/19 22/3/19
f 31/6/20 47/38/20 46/35/20 30/7/20
f 24/10/21 40/39/21 39/37/21 23/2/21
f 32/12/22 48/40/22 47/38/22 31/6/22
f 25/14/23 41/41/23 40/39/23 24/10/23
f 18/16/24 34/42/24 33/43/24 17/17/24
f 17/17/25 33/43/25 48/40/25 32/12/25
f 26/20/26 42/44/26 41/41/26 25/14/26
f 19/22/27 35/45/27 34/42/27 18/16/27
f 27/24/28 43/46/28 42/44/28 26/20/28
f 20/26/29 36/47/29 35/45/29 19/22/29
f 28/28/30 44/48/30 43/46/30 27/24/30
f 21/30/31 37/34/31 36/47/31 20/26/31
f 29/32/32 45/36/32 44/48/32 28/28/32
f 43/46/33 59/49/33 58/50/33 42/44/33
f 36/47/34 52/51/34 51/52/34 35/45/34
f 44/48/35 60/53/35 59/49/35 43/46/35
f 37/34/36 53/54/36 52/51/36 36/47/36
f 45/36/37 61/55/37 60/53/37 44/48/37
f 38/33/38 54/56/38 53/54/38 37/34/38
f 46/35/39 62/57/39 61/55/39 45/36/39
f 39/37/40 55/58/40 54/56/40 38/33/40
f 47/38/41 63/59/41 62/57/41 46/35/41
f 40/39/42 56/60/42 55/58/42 39/37/42
f 48/40/43 64/61/43 63/59/43 47/38/43
f 41/41/44 57/62/44 56/60/44 40/39/44
f 34/42/45 50/63/45 49/64/45 33/43/45
f 33/43/46 49/64/46 64/61/46 48/40/46
f 42/44/47 58/50/47 57/62/47 41/41/47
f 35/45/48 51/52/48 50/63/48 34/42/48
f 64/61/49 80/65/49 79/66/49 63/59/49
f 57/62/50 73/67/50 72/68/50 56/60/50
f 50/63/51 66/69/51 65/70/51 49/64/51
f 49/64/52 65/70/52 80/65/52 64/61/52
f 58/50/53 74/71/53 73/67/53 57/62/53
f 51/52/54 67/72/54 66/69/54 50/63/54
f 59/49/55 75/73/55 74/71/55 58/50/55
f 52/51/56 68/74/56 67/72/56 51/52/56
f 60/53/57 76/75/57 75/73/57 59/49/57
f 53/54/58 69/76/58 68/74/58 52/51/58
f 61/55/59 77/77/59 76/75/59 60/53/59
f 54/56/60 70/78/60 69/76/60 53/54/60
f 62/57/61 78/79/61 77/77/61 61/55/61
f 55/58/62 71/80/62 70/78/62 54/56/62
f 63/59/63 79/66/63 78/79/63 62/57/63
f 56/60/64 72/68/64 71/80/64 55/58/64
f 70/78/65 86/81/65 85/82/65 69/76/65
f 78/79/66 94/83/66 93/84/66 77/77/66
f 71/80/67 87/85/67 86/81/67 70/78/67
f 79/66/68 95/86/68 94/83/68 78/79/68
f 72/68/69 88/87/69 87/85/69 71/80/69
f 80/65/70 96/88/70 95/86/70 79/66/70
f 73/67/71 89/89/71 88/87/71 72/68/71
f 66/69/72 82/90/72 81/91/72 65/70/72
f 65/70/73 81/91/73 96/88/73 80/65/73
f 74/71/74 90/92/74 89/89/74 73/67/74
f 67/72/75 83/93/75 82/90/75 66/69/75
f 75/73/76 91/94/76 90/92/76 74/71/76
f 68/74/77 84/95/77 83/93/77 67/72/77
f 76/75/78 92/96/78 91/94/78 75/73/78
f 69/76/79 85/82/79 84/95/79 68/74/79
f 77/77/80 93/84/80 92/96/80 76/75/80
f 91/94/81 107/97/81 106/98/81 90/92/81
f 84/95/82 100/99/82 99/100/82 83/93/82
f 92/96/83 108/101/83 107/97/83 91/94/83
f 85/82/84 101/102/84 100/99/84 84/95/84
f 93/84/85 109/103/85 108/101/85 92/96/85
f 86/81/86 102/104/86 101/102/86 85/82/86
f 94/83/87 110/105/87 109/103/87 93/84/87
f 87/85/88 103/106/88 102/104/88 86/81/88
f 95/86/89 111/107/89 110/105/89 94/83/89
f 88/87/90 104/108/90 103/106/90 87/85/90
f 96/88/91 112/109/91 111/107/91 95/86/91
f 89/89/92 105/110/92 104/108/92 88/87/92
f 82/90/93 98/111/93 97/112/93 81/91/93
f 81/91/94 97/112/94 112/109/94 96/88/94
f 90/92/95 106/98/95 105/110/95 89/89/95
f 83/93/96 99/100/96 98/111/96 82/90/96
f 109/103/97 113/113/97 108/101/97
f 102/104/98 113/113/98 101/102/98
f 110/105/99 113/113/99 109/103/99
f 103/106/100 113/113/100 102/104/100
f 111/107/101 113/113/101 110/105/101
f 104/108/102 113/113/102 103/106/102
f 112/109/103 113/113/103 111/107/103
f 105/110/104 113/113/104 104/108/104
f 98/111/105 113/113/105 97/112/105
f 97/112/106 113/113/106 112/109/106
f 106/98/107 113/113/107 105/110/107
f 99/100/108 113/113/108 98/111/108
f 107/97/109 113/113/109 106/98/109
f 100/99/110 113/113/110 99/100/110
f 108/101/111 113/113/111 107/97/111
f 101/102/112 113/113/112 100/99/112
